<svg xmlns="http://www.w3.org/2000/svg" viewBox="3796 -7375.6 84 84">
  <defs>
    <style>
      .cls-1 {
        fill: #479597;
      }
    </style>
  </defs>
  <g id="Group_196" data-name="Group 196" transform="translate(3035 -8358.6)">
    <g id="Group_195" data-name="Group 195" transform="translate(761 983)">
      <path id="Path_287" data-name="Path 287" class="cls-1" d="M42,1.956A40.059,40.059,0,1,0,82.1,42,40.087,40.087,0,0,0,42,1.956M42,84A42,42,0,1,1,84,42,42.041,42.041,0,0,1,42,84"/>
      <path id="Path_288" data-name="Path 288" class="cls-1" d="M73.194,48.127H69.578v2.016L73.194,54ZM63.8,64.755V79.012H52.3V64.755h-3.26L48,62.324l14.79-15.8L63.828,45.4l1.037,1.126,14.79,15.8-1.037,2.43H63.8Z" transform="translate(-33.773 -31.943)"/>
      <path id="Path_289" data-name="Path 289" class="cls-1" d="M114.321,129.038v-5.009h-4.09v5.009H107V116.5h3.231v4.713h4.09V116.5h3.231v12.538Z" transform="translate(-75.285 -81.969)"/>
      <path id="Path_290" data-name="Path 290" class="cls-1" d="M151.95,128.3a2.085,2.085,0,0,0-2.134,1.6h4.268a2.108,2.108,0,0,0-2.134-1.6m4.891,3.5h-7.054a2.1,2.1,0,0,0,2.193,1.778,2.008,2.008,0,0,0,1.719-.889h2.875a5.059,5.059,0,0,1-4.594,3.26,5.024,5.024,0,1,1,4.95-4.891c-.03.267-.059.5-.089.741" transform="translate(-103.429 -88.583)"/>
      <rect id="Rectangle_510" data-name="Rectangle 510" class="cls-1" width="2.816" height="12.567" transform="translate(54.686 34.531)"/>
      <path id="Path_291" data-name="Path 291" class="cls-1" d="M204.268,128.568a2.4,2.4,0,1,0,2.371,2.4,2.348,2.348,0,0,0-2.371-2.4m.593,7.41a3.579,3.579,0,0,1-2.845-1.186v4H199.2V126.226h2.638v1.037h.059a3.651,3.651,0,0,1,2.934-1.363c2.9,0,4.594,2.4,4.594,5.128a4.66,4.66,0,0,1-4.565,4.95" transform="translate(-140.157 -88.583)"/>
      <path id="Path_292" data-name="Path 292" class="cls-1" d="M66.609,173.076v7.291H63.793v-7.291H62.4v-2.134h1.393V167.8h2.816v3.142h1.363v2.134Z" transform="translate(-43.905 -118.064)"/>
      <path id="Path_293" data-name="Path 293" class="cls-1" d="M87.068,180.038a2.374,2.374,0,1,0,2.253,2.371,2.3,2.3,0,0,0-2.253-2.371m0,7.38a5.01,5.01,0,1,1,5.068-5.009,4.925,4.925,0,0,1-5.068,5.009" transform="translate(-57.695 -124.819)"/>
      <path id="Path_294" data-name="Path 294" class="cls-1" d="M136.313,175.091h-1.838v2.638h1.838c.919,0,1.719-.326,1.719-1.393,0-1.037-.86-1.245-1.719-1.245m-.356-4.653h-1.482v2.342h1.482c.83,0,1.541-.237,1.541-1.215-.03-.948-.741-1.126-1.541-1.126m3.764,8.833c-1.3,1.1-2.49,1.1-4.12,1.1h-4V167.8h3.883c1.512,0,2.934.03,4.031,1.215a2.935,2.935,0,0,1,.741,2.075,2.819,2.819,0,0,1-1.452,2.519,2.869,2.869,0,0,1,2.075,2.9,3.523,3.523,0,0,1-1.156,2.757" transform="translate(-92.594 -118.064)"/>
      <path id="Path_295" data-name="Path 295" class="cls-1" d="M172.376,187.826v-1.008h-.03a2.438,2.438,0,0,1-2.43,1.3,3.493,3.493,0,0,1-2.757-1.186,3.945,3.945,0,0,1-.86-2.9V178.4h2.816v5.217c0,1.067.237,1.9,1.512,1.9,1.156,0,1.6-.83,1.6-1.927V178.4h2.816v9.426Z" transform="translate(-117.009 -125.522)"/>
      <path id="Path_296" data-name="Path 296" class="cls-1" d="M203.309,190.967h-2.994l1.482-3.616-3.5-8.951h3.023l1.867,5.483h.03l1.808-5.483h2.994Z" transform="translate(-139.524 -125.522)"/>
      <path id="Path_297" data-name="Path 297" class="cls-1" d="M53.539,16.4A37.139,37.139,0,1,0,90.678,53.539,37.178,37.178,0,0,0,53.539,16.4Zm0,72.322A35.2,35.2,0,1,1,88.722,53.509,35.166,35.166,0,0,1,53.539,88.722Z" transform="translate(-11.539 -11.539)"/>
    </g>
  </g>
</svg>
